{
   "accessors" : [
      {
         "bufferView" : 0,
         "componentType" : 5123,
         "count" : 65535,
         "max" : [ 65534 ],
         "min" : [ 0 ],
         "name" : "buffer-0-accessor-indices-buffer-0-mesh-0",
         "type" : "SCALAR"
      },
      {
         "bufferView" : 2,
         "componentType" : 5126,
         "count" : 65535,
         "max" : [ 51.89987182617188, 191.8884735107422, 51.96250915527344 ],
         "min" : [ -37.9583625793457, 0, -37.95837020874023 ],
         "name" : "buffer-0-accessor-position-buffer-0-mesh-0",
         "type" : "VEC3"
      },
      {
         "bufferView" : 2,
         "byteOffset" : 786420,
         "componentType" : 5126,
         "count" : 65535,
         "max" : [ 1, 1, 1 ],
         "min" : [ -1, -1, -1 ],
         "name" : "buffer-0-accessor-normal-buffer-0-mesh-0",
         "type" : "VEC3"
      },
      {
         "bufferView" : 1,
         "componentType" : 5126,
         "count" : 65535,
         "max" : [ 1, 0 ],
         "min" : [ 0, -1 ],
         "name" : "buffer-0-accessor-texcoord-buffer-0-mesh-0",
         "type" : "VEC2"
      },
      {
         "bufferView" : 3,
         "componentType" : 5126,
         "count" : 0,
         "max" : [ 0, 0, 0, 0 ],
         "min" : [ 0, 0, 0, 0 ],
         "name" : "buffer-0-accessor-color-buffer-0-mesh-0",
         "type" : "VEC4"
      },
      {
         "bufferView" : 0,
         "byteOffset" : 131070,
         "componentType" : 5123,
         "count" : 65535,
         "max" : [ 65534 ],
         "min" : [ 0 ],
         "name" : "buffer-0-accessor-indices-buffer-0-mesh-1",
         "type" : "SCALAR"
      },
      {
         "bufferView" : 2,
         "byteOffset" : 1572840,
         "componentType" : 5126,
         "count" : 65535,
         "max" : [ 53.06188201904297, 138.6545867919922, 53.0618782043457 ],
         "min" : [ -53.18449783325195, 0, -53.06187438964844 ],
         "name" : "buffer-0-accessor-position-buffer-0-mesh-1",
         "type" : "VEC3"
      },
      {
         "bufferView" : 2,
         "byteOffset" : 2359260,
         "componentType" : 5126,
         "count" : 65535,
         "max" : [ 1, 1, 1 ],
         "min" : [ -1, -1, -0.9914554357528687 ],
         "name" : "buffer-0-accessor-normal-buffer-0-mesh-1",
         "type" : "VEC3"
      },
      {
         "bufferView" : 1,
         "byteOffset" : 524280,
         "componentType" : 5126,
         "count" : 65535,
         "max" : [ 1, 0 ],
         "min" : [ 0, -1 ],
         "name" : "buffer-0-accessor-texcoord-buffer-0-mesh-1",
         "type" : "VEC2"
      },
      {
         "bufferView" : 3,
         "componentType" : 5126,
         "count" : 0,
         "max" : [ 0, 0, 0, 0 ],
         "min" : [ 0, 0, 0, 0 ],
         "name" : "buffer-0-accessor-color-buffer-0-mesh-1",
         "type" : "VEC4"
      },
      {
         "bufferView" : 0,
         "byteOffset" : 262140,
         "componentType" : 5123,
         "count" : 40554,
         "max" : [ 40553 ],
         "min" : [ 0 ],
         "name" : "buffer-0-accessor-indices-buffer-0-mesh-2",
         "type" : "SCALAR"
      },
      {
         "bufferView" : 2,
         "byteOffset" : 3145680,
         "componentType" : 5126,
         "count" : 40554,
         "max" : [ 53.18450546264648, 193.1217498779297, 53.18450164794922 ],
         "min" : [ -53.18449783325195, 0, -53.18449783325195 ],
         "name" : "buffer-0-accessor-position-buffer-0-mesh-2",
         "type" : "VEC3"
      },
      {
         "bufferView" : 2,
         "byteOffset" : 3632328,
         "componentType" : 5126,
         "count" : 40554,
         "max" : [ 0.9961948394775391, 1.00000011920929, 0.9961947202682495 ],
         "min" : [ -0.9961948394775391, -1.00000011920929, -0.9961947202682495 ],
         "name" : "buffer-0-accessor-normal-buffer-0-mesh-2",
         "type" : "VEC3"
      },
      {
         "bufferView" : 1,
         "byteOffset" : 1048560,
         "componentType" : 5126,
         "count" : 40554,
         "max" : [ 1.039945006370544, 0.03994488716125488 ],
         "min" : [ -0.8315577507019043, -1.039945006370544 ],
         "name" : "buffer-0-accessor-texcoord-buffer-0-mesh-2",
         "type" : "VEC2"
      },
      {
         "bufferView" : 3,
         "componentType" : 5126,
         "count" : 0,
         "max" : [ 0, 0, 0, 0 ],
         "min" : [ 0, 0, 0, 0 ],
         "name" : "buffer-0-accessor-color-buffer-0-mesh-2",
         "type" : "VEC4"
      },
      {
         "bufferView" : 0,
         "byteOffset" : 343248,
         "componentType" : 5123,
         "count" : 19200,
         "max" : [ 19199 ],
         "min" : [ 0 ],
         "name" : "buffer-0-accessor-indices-buffer-0-mesh-0",
         "type" : "SCALAR"
      },
      {
         "bufferView" : 2,
         "byteOffset" : 4118976,
         "componentType" : 5126,
         "count" : 19200,
         "max" : [ 52.94993591308594, 192.9653167724609, 52.94993591308594 ],
         "min" : [ -52.94993591308594, 0, -53.00535202026367 ],
         "name" : "buffer-0-accessor-position-buffer-0-mesh-0",
         "type" : "VEC3"
      },
      {
         "bufferView" : 2,
         "byteOffset" : 4349376,
         "componentType" : 5126,
         "count" : 19200,
         "max" : [ 0.9952089786529541, 0.9960798025131226, 0.9961118698120117 ],
         "min" : [ -0.9952089786529541, -0.9960684776306152, -0.9960092306137085 ],
         "name" : "buffer-0-accessor-normal-buffer-0-mesh-0",
         "type" : "VEC3"
      },
      {
         "bufferView" : 1,
         "byteOffset" : 1372992,
         "componentType" : 5126,
         "count" : 19200,
         "max" : [ 1, 0 ],
         "min" : [ 0, -1 ],
         "name" : "buffer-0-accessor-texcoord-buffer-0-mesh-0",
         "type" : "VEC2"
      },
      {
         "bufferView" : 3,
         "componentType" : 5126,
         "count" : 0,
         "max" : [ 0, 0, 0, 0 ],
         "min" : [ 0, 0, 0, 0 ],
         "name" : "buffer-0-accessor-color-buffer-0-mesh-0",
         "type" : "VEC4"
      },
      {
         "bufferView" : 0,
         "byteOffset" : 381648,
         "componentType" : 5123,
         "count" : 44496,
         "max" : [ 44495 ],
         "min" : [ 0 ],
         "name" : "buffer-0-accessor-indices-buffer-0-mesh-0",
         "type" : "SCALAR"
      },
      {
         "bufferView" : 2,
         "byteOffset" : 4579776,
         "componentType" : 5126,
         "count" : 44496,
         "max" : [ 24.00143241882324, 108.5849990844727, 24.00143241882324 ],
         "min" : [ -24.00143241882324, 0, -24.00143241882324 ],
         "name" : "buffer-0-accessor-position-buffer-0-mesh-0",
         "type" : "VEC3"
      },
      {
         "bufferView" : 2,
         "byteOffset" : 5113728,
         "componentType" : 5126,
         "count" : 44496,
         "max" : [ 0.9990482330322266, 1, 0.9990482330322266 ],
         "min" : [ -0.9990482330322266, -1.00000011920929, -0.9990482330322266 ],
         "name" : "buffer-0-accessor-normal-buffer-0-mesh-0",
         "type" : "VEC3"
      },
      {
         "bufferView" : 1,
         "byteOffset" : 1526592,
         "componentType" : 5126,
         "count" : 44496,
         "max" : [ 1.537460207939148, 0.6690998077392578 ],
         "min" : [ -0.5967400670051575, -1.554884791374207 ],
         "name" : "buffer-0-accessor-texcoord-buffer-0-mesh-0",
         "type" : "VEC2"
      },
      {
         "bufferView" : 3,
         "componentType" : 5126,
         "count" : 0,
         "max" : [ 0, 0, 0, 0 ],
         "min" : [ 0, 0, 0, 0 ],
         "name" : "buffer-0-accessor-color-buffer-0-mesh-0",
         "type" : "VEC4"
      }
   ],
   "asset" : {
      "extras" : {
         "GOOGLE_processor_version" : 294144208
      },
      "generator" : "Obj2GltfConverter",
      "version" : "2.0"
   },
   "bufferViews" : [
      {
         "buffer" : 0,
         "byteLength" : 470640,
         "byteStride" : 0,
         "name" : "buffer-0-bufferview-ushort",
         "target" : 34963
      },
      {
         "buffer" : 0,
         "byteLength" : 1882560,
         "byteOffset" : 470640,
         "byteStride" : 8,
         "name" : "buffer-0-bufferview-vec2",
         "target" : 34962
      },
      {
         "buffer" : 0,
         "byteLength" : 5647680,
         "byteOffset" : 2353200,
         "byteStride" : 12,
         "name" : "buffer-0-bufferview-vec3",
         "target" : 34962
      },
      {
         "buffer" : 0,
         "byteLength" : 1,
         "name" : "buffer-0-bufferview-vec4"
      }
   ],
   "buffers" : [
      {
         "byteLength" : 8000880,
         "name" : "buffer-0",
         "uri" : "Lamp.bin"
      }
   ],
   "cameras" : [
      {
         "perspective" : {
            "yfov" : 0.7853981633974483,
            "znear" : 0.1000000014901161
         },
         "type" : "perspective"
      }
   ],
   "extensions" : {
      "KHR_lights_punctual" : {
         "lights" : [
            {
               "color" : [ 1, 0.9333333333333333, 0.8666666666666667 ],
               "intensity" : 0.25,
               "name" : "headLight",
               "type" : "directional"
            },
            {
               "color" : [ 1, 0.9333333333333333, 0.8666666666666667 ],
               "intensity" : 0.324999988079071,
               "name" : "keyLight",
               "type" : "directional"
            }
         ]
      }
   },
   "extensionsUsed" : [ "GOOGLE_backgrounds", "GOOGLE_camera_settings", "KHR_lights_punctual" ],
   "extras" : {
      "GOOGLE_initial_camera_motion" : {
         "motionPath" : "FULL_ROTATION"
      },
      "GOOGLE_lighting_rig" : {
         "disableShadows" : false
      }
   },
   "materials" : [
      {
         "doubleSided" : true,
         "name" : "default",
         "pbrMetallicRoughness" : {
            "metallicFactor" : 0,
            "roughnessFactor" : 0.9699476628648295
         }
      },
      {
         "doubleSided" : true,
         "name" : "Shade",
         "pbrMetallicRoughness" : {
            "baseColorFactor" : [ 0.83254677057266, 0.7582374215126, 0.55388659238815, 1 ],
            "metallicFactor" : 0,
            "roughnessFactor" : 0.9699476628648295
         }
      },
      {
         "doubleSided" : true,
         "name" : "tree",
         "pbrMetallicRoughness" : {
            "baseColorFactor" : [ 0.65098041296005, 0.68627452850342, 0.1803921610117, 1 ],
            "metallicFactor" : 0,
            "roughnessFactor" : 0.8582186230066646
         }
      }
   ],
   "meshes" : [
      {
         "name" : "buffer-0-mesh-0",
         "primitives" : [
            {
               "attributes" : {
                  "NORMAL" : 2,
                  "POSITION" : 1,
                  "TEXCOORD_0" : 3
               },
               "indices" : 0,
               "material" : 0
            },
            {
               "attributes" : {
                  "NORMAL" : 7,
                  "POSITION" : 6,
                  "TEXCOORD_0" : 8
               },
               "indices" : 5,
               "material" : 0
            },
            {
               "attributes" : {
                  "NORMAL" : 12,
                  "POSITION" : 11,
                  "TEXCOORD_0" : 13
               },
               "indices" : 10,
               "material" : 0
            },
            {
               "attributes" : {
                  "NORMAL" : 17,
                  "POSITION" : 16,
                  "TEXCOORD_0" : 18
               },
               "indices" : 15,
               "material" : 1
            },
            {
               "attributes" : {
                  "NORMAL" : 22,
                  "POSITION" : 21,
                  "TEXCOORD_0" : 23
               },
               "indices" : 20,
               "material" : 2
            }
         ]
      }
   ],
   "nodes" : [
      {
         "mesh" : 0,
         "name" : "node-0"
      },
      {
         "children" : [ 2 ]
      },
      {
         "children" : [ 3 ],
         "extras" : {
            "isTransformNode" : 1
         },
         "translation" : [ -0.4867344233453392, 116.1024516208589, 0.484632957500696 ]
      },
      {
         "children" : [ 0 ],
         "translation" : [ 0.4867344233453392, -116.1024516208589, -0.484632957500696 ]
      },
      {
         "camera" : 0,
         "children" : [ 5 ],
         "rotation" : [
            -0.221924054279278,
            -0.2518950318538158,
            -0.05946428056213493,
            0.9400864887853888
         ],
         "translation" : [ -115.9096813227718, 231.5156894210807, 200.4102055213057 ]
      },
      {
         "extensions" : {
            "KHR_lights_punctual" : {
               "light" : 0
            }
         },
         "extras" : {
            "isHeadLight" : 1
         },
         "name" : "headLightNode",
         "translation" : [ -148.0813510765664, 74.04067553828318, 74.04067553828318 ]
      },
      {
         "extensions" : {
            "KHR_lights_punctual" : {
               "light" : 1
            }
         },
         "extras" : {
            "isKeyLight" : 1
         },
         "name" : "keyLightNode",
         "rotation" : [ -0.7505326882858236, -0.3752663441429118, 0, 0.5439447166468927 ],
         "scale" : [ 0, 0, 149.562164587332 ],
         "translation" : [ -149.5613073786902, 432.6620808606796, -149.9320222422744 ]
      }
   ],
   "scene" : 0,
   "scenes" : [
      {
         "extensions" : {
            "GOOGLE_backgrounds" : {
               "color" : [ 0.2431372549019608, 0.1529411764705882, 0.1372549019607843 ]
            },
            "GOOGLE_camera_settings" : {}
         },
         "extras" : {
            "GOOGLE_camera_index" : {
               "cameraIndex" : 0,
               "nodeIndex" : 4
            },
            "GOOGLE_geometry_data" : {
               "stats" : {
                  "centroid" : [ 0.0008572086418135428, 133.5377516860155, -0.3698576549423654 ],
                  "radius" : 148.0813510765664,
                  "stdev" : 57.50727360219665
               },
               "visualCenterPoint" : [ -0.4867344233453392, 116.1024516208589, 0.484632957500696 ]
            },
            "GOOGLE_hemi_light" : {
               "groundColor" : [ 0.2431372549019608, 0.1529411764705882, 0.1372549019607843 ]
            }
         },
         "name" : "scene-0",
         "nodes" : [ 1, 4, 6 ]
      }
   ]
}
