{
	"accessors" : 
	[
		{
			"bufferView" : 2,
			"byteOffset" : 0,
			"componentType" : 5126,
			"count" : 19988,
			"max" : 
			[
				0.1939721703529358,
				0.08919350802898407,
				0.06190747767686844,
				1
			],
			"min" : 
			[
				0.006584956776350737,
				0.006584956776350737,
				0.006584956776350737,
				1
			],
			"name" : "accessor_color_m0-PolyPaper20_-29218",
			"type" : "VEC4"
		},
		{
			"bufferView" : 2,
			"byteOffset" : 319808,
			"componentType" : 5126,
			"count" : 19964,
			"max" : 
			[
				0.006584956776350737,
				0.006584956776350737,
				0.006584956776350737,
				1
			],
			"min" : 
			[
				0.006584956776350737,
				0.006584956776350737,
				0.006584956776350737,
				1
			],
			"name" : "accessor_color_m1-PolyPaper23_-29224",
			"type" : "VEC4"
		},
		{
			"bufferView" : 2,
			"byteOffset" : 639232,
			"componentType" : 5126,
			"count" : 5004,
			"max" : 
			[
				0.006584956776350737,
				0.006584956776350737,
				0.006584956776350737,
				1
			],
			"min" : 
			[
				0.006584956776350737,
				0.006584956776350737,
				0.006584956776350737,
				1
			],
			"name" : "accessor_color_m2-PolyPaper23_-29230",
			"type" : "VEC4"
		},
		{
			"bufferView" : 0,
			"byteOffset" : 0,
			"componentType" : 5123,
			"count" : 30006,
			"max" : 
			[
				19987
			],
			"min" : 
			[
				0
			],
			"name" : "accessor_indices_0_m0-PolyPaper20_-29218",
			"type" : "SCALAR"
		},
		{
			"bufferView" : 0,
			"byteOffset" : 60012,
			"componentType" : 5123,
			"count" : 29946,
			"max" : 
			[
				19963
			],
			"min" : 
			[
				0
			],
			"name" : "accessor_indices_0_m1-PolyPaper23_-29224",
			"type" : "SCALAR"
		},
		{
			"bufferView" : 0,
			"byteOffset" : 119904,
			"componentType" : 5123,
			"count" : 7506,
			"max" : 
			[
				5003
			],
			"min" : 
			[
				0
			],
			"name" : "accessor_indices_0_m2-PolyPaper23_-29230",
			"type" : "SCALAR"
		},
		{
			"bufferView" : 1,
			"byteOffset" : 239856,
			"componentType" : 5126,
			"count" : 19988,
			"max" : 
			[
				0.9997566,
				0.9962607999999999,
				0.9998622
			],
			"min" : 
			[
				-0.999745,
				-0.9962606000000001,
				-0.9998106
			],
			"name" : "accessor_normal_m0-PolyPaper20_-29218",
			"type" : "VEC3"
		},
		{
			"bufferView" : 1,
			"byteOffset" : 719280,
			"componentType" : 5126,
			"count" : 19964,
			"max" : 
			[
				0.9999293,
				0.9999614,
				0.9999941
			],
			"min" : 
			[
				-0.9999325999999999,
				-0.9999616,
				-0.9999980000000001
			],
			"name" : "accessor_normal_m1-PolyPaper23_-29224",
			"type" : "VEC3"
		},
		{
			"bufferView" : 1,
			"byteOffset" : 1018896,
			"componentType" : 5126,
			"count" : 5004,
			"max" : 
			[
				0.9929369,
				0.9473335000000001,
				0.999845
			],
			"min" : 
			[
				-0.9934809,
				-0.9702972,
				-0.9997402
			],
			"name" : "accessor_normal_m2-PolyPaper23_-29230",
			"type" : "VEC3"
		},
		{
			"bufferView" : 1,
			"byteOffset" : 0,
			"componentType" : 5126,
			"count" : 19988,
			"max" : 
			[
				0.4486215,
				1.428888,
				-0.02494681
			],
			"min" : 
			[
				0.2070591,
				1.165097,
				-0.2707361
			],
			"name" : "accessor_position_m0-PolyPaper20_-29218",
			"type" : "VEC3"
		},
		{
			"bufferView" : 1,
			"byteOffset" : 479712,
			"componentType" : 5126,
			"count" : 19964,
			"max" : 
			[
				0.4676849,
				1.421986,
				0.001046591
			],
			"min" : 
			[
				0.1887347,
				1.131552,
				-0.2793283
			],
			"name" : "accessor_position_m1-PolyPaper23_-29224",
			"type" : "VEC3"
		},
		{
			"bufferView" : 1,
			"byteOffset" : 958848,
			"componentType" : 5126,
			"count" : 5004,
			"max" : 
			[
				0.4716674,
				1.416434,
				-0.003785217
			],
			"min" : 
			[
				0.2875966,
				1.134414,
				-0.2945688
			],
			"name" : "accessor_position_m2-PolyPaper23_-29230",
			"type" : "VEC3"
		}
	],
	"asset" : 
	{
		"copyright" : "Unknown",
		"generator" : "glTF 1-to-2 Upgrader for Google Blocks",
		"version" : "2.0"
	},
	"bufferViews" : 
	[
		{
			"buffer" : 0,
			"byteLength" : 134916,
			"byteOffset" : 0,
			"name" : "ushortBufferView",
			"target" : 34963
		},
		{
			"buffer" : 0,
			"byteLength" : 1078944,
			"byteOffset" : 134916,
			"byteStride" : 12,
			"name" : "vec3BufferView",
			"target" : 34962
		},
		{
			"buffer" : 0,
			"byteLength" : 719296,
			"byteOffset" : 1213860,
			"byteStride" : 16,
			"name" : "vec4BufferView",
			"target" : 34962
		}
	],
	"buffers" : 
	[
		{
			"byteLength" : 1933156,
			"name" : "model",
			"uri" : "model.bin"
		}
	],
	"materials" : 
	[
		{
			"alphaMode" : "OPAQUE",
			"doubleSided" : false,
			"name" : "BlocksPaper",
			"pbrMetallicRoughness" : 
			{
				"baseColorFactor" : 
				[
					1,
					1,
					1,
					1
				],
				"metallicFactor" : 0,
				"roughnessFactor" : 0.6
			}
		},
		{
			"alphaMode" : "BLEND",
			"doubleSided" : false,
			"name" : "BlocksGlass",
			"pbrMetallicRoughness" : 
			{
				"baseColorFactor" : 
				[
					0.2,
					0.2,
					1,
					0.3
				],
				"metallicFactor" : 1,
				"roughnessFactor" : 0.4
			}
		},
		{
			"alphaMode" : "OPAQUE",
			"doubleSided" : true,
			"name" : "BlocksGem",
			"pbrMetallicRoughness" : 
			{
				"baseColorFactor" : 
				[
					1,
					0.4,
					1,
					1
				],
				"metallicFactor" : 0,
				"roughnessFactor" : 0.1
			}
		}
	],
	"meshes" : 
	[
		{
			"name" : "mesh_m0-PolyPaper20_-29218",
			"primitives" : 
			[
				{
					"attributes" : 
					{
						"COLOR_0" : 0,
						"NORMAL" : 6,
						"POSITION" : 9
					},
					"indices" : 3,
					"material" : 0,
					"mode" : 4
				}
			]
		},
		{
			"name" : "mesh_m1-PolyPaper23_-29224",
			"primitives" : 
			[
				{
					"attributes" : 
					{
						"COLOR_0" : 1,
						"NORMAL" : 7,
						"POSITION" : 10
					},
					"indices" : 4,
					"material" : 0,
					"mode" : 4
				}
			]
		},
		{
			"name" : "mesh_m2-PolyPaper23_-29230",
			"primitives" : 
			[
				{
					"attributes" : 
					{
						"COLOR_0" : 2,
						"NORMAL" : 8,
						"POSITION" : 11
					},
					"indices" : 5,
					"material" : 0,
					"mode" : 4
				}
			]
		}
	],
	"nodes" : 
	[
		{
			"matrix" : 
			[
				1,
				0,
				0,
				0,
				0,
				1,
				0,
				0,
				0,
				0,
				1,
				0,
				0,
				0,
				0,
				1
			],
			"mesh" : 2,
			"name" : "node_MeshObject1440503808-PolyPaper23"
		},
		{
			"matrix" : 
			[
				1,
				0,
				0,
				0,
				0,
				1,
				0,
				0,
				0,
				0,
				1,
				0,
				0,
				0,
				0,
				1
			],
			"mesh" : 0,
			"name" : "node_MeshObject296345600-PolyPaper20"
		},
		{
			"matrix" : 
			[
				1,
				0,
				0,
				0,
				0,
				1,
				0,
				0,
				0,
				0,
				1,
				0,
				0,
				0,
				0,
				1
			],
			"mesh" : 1,
			"name" : "node_MeshObject868424704-PolyPaper23"
		}
	],
	"scene" : 0,
	"scenes" : 
	[
		{
			"extras" : {},
			"name" : "defaultScene",
			"nodes" : 
			[
				1,
				2,
				0
			]
		}
	]
}