{"accessors" : [{"bufferView" : 0, "byteOffset" : 0, "componentType" : 5123, "count" : 253500, "type" : "SCALAR", "max" : [59914], "min" : [0]}, {"bufferView" : 1, "byteOffset" : 0, "componentType" : 5126, "count" : 59915, "type" : "VEC3", "max" : [34.263710021972656, -20.253969192504883, 16.423259735107422], "min" : [-34.263710021972656, -73.74910736083984, -16.423259735107422], "name" : "POSITION"}, {"bufferView" : 1, "byteOffset" : 12, "componentType" : 5126, "count" : 59915, "type" : "VEC3", "max" : [0.9999562501907349, 0.9998626708984375, 0.9999663233757019], "min" : [-1.0000022649765015, -0.9999875426292419, -0.999995231628418], "name" : "NORMAL"}, {"bufferView" : 1, "byteOffset" : 24, "componentType" : 5126, "count" : 59915, "type" : "VEC2", "max" : [0.44394999742507935, -0.4490300118923187], "min" : [0.0013299999991431832, -0.9985799789428711], "name" : "TEXCOORD_0"}], "asset" : {"generator" : "Aspose.3D 21.4", "version" : "2.0"}, "buffers" : [{"uri" : "buffer.bin", "byteLength" : 8774076}], "bufferViews" : [{"buffer" : 0, "byteOffset" : 0, "byteLength" : 507000, "target" : 34963}, {"buffer" : 0, "byteOffset" : 507004, "byteLength" : 8112000, "byteStride" : 32, "target" : 34962}, {"buffer" : 0, "byteOffset" : 8619008, "byteLength" : 155064}], "images" : [{"mimeType" : "image/jpeg", "bufferView" : 2}], "materials" : [{"pbrMetallicRoughness" : {"baseColorFactor" : [1, 1, 1, 1], "baseColorTexture" : {"index" : 0, "texCoord" : 0}, "metallicFactor" : 0, "roughnessFactor" : 0.9699476628648295}, "emissiveFactor" : [0, 0, 0], "alphaMode" : "OPAQUE", "doubleSided" : true}], "meshes" : [{"primitives" : [{"attributes" : {"POSITION" : 1, "NORMAL" : 2, "TEXCOORD_0" : 3}, "indices" : 0, "material" : 0, "mode" : 4}]}], "nodes" : [{"mesh" : 0, "name" : "node-0"}], "samplers" : [{"magFilter" : 9728, "minFilter" : 9728, "wrapS" : 10497, "wrapT" : 10497}], "scene" : 0, "scenes" : [{"nodes" : [0]}], "textures" : [{"sampler" : 0, "source" : 0}]}