{
   "accessors" : [
      {
         "bufferView" : 2,
         "byteOffset" : 0,
         "componentType" : 5126,
         "count" : 2492,
         "max" : [ 1, 0.835527777671814, 0.7226724624633789, 1 ],
         "min" : [ 0.05637409910559654, 0.09387587010860443, 0, 1 ],
         "name" : "accessor_color_m0-PolyPaper14_-6616",
         "type" : "VEC4"
      },
      {
         "bufferView" : 2,
         "byteOffset" : 39872,
         "componentType" : 5126,
         "count" : 312,
         "max" : [ 1, 1, 1, 1 ],
         "min" : [ 1, 1, 1, 1 ],
         "name" : "accessor_color_m1-PolyGem25_-6586",
         "type" : "VEC4"
      },
      {
         "bufferView" : 0,
         "byteOffset" : 0,
         "componentType" : 5123,
         "count" : 3492,
         "max" : [ 2491 ],
         "min" : [ 0 ],
         "name" : "accessor_indices_0_m0-PolyPaper14_-6616",
         "type" : "SCALAR"
      },
      {
         "bufferView" : 0,
         "byteOffset" : 6984,
         "componentType" : 5123,
         "count" : 492,
         "max" : [ 311 ],
         "min" : [ 0 ],
         "name" : "accessor_indices_0_m1-PolyGem25_-6586",
         "type" : "SCALAR"
      },
      {
         "bufferView" : 1,
         "byteOffset" : 29904,
         "componentType" : 5126,
         "count" : 2492,
         "max" : [ 1, 1, 1 ],
         "min" : [ -1, -1, -1 ],
         "name" : "accessor_normal_m0-PolyPaper14_-6616",
         "type" : "VEC3"
      },
      {
         "bufferView" : 1,
         "byteOffset" : 63552,
         "componentType" : 5126,
         "count" : 312,
         "max" : [ 0.9659259, 1, 0.9659259 ],
         "min" : [ -0.9659257, -1, -0.965926 ],
         "name" : "accessor_normal_m1-PolyGem25_-6586",
         "type" : "VEC3"
      },
      {
         "bufferView" : 1,
         "byteOffset" : 0,
         "componentType" : 5126,
         "count" : 2492,
         "max" : [ 0.08412099000000001, 1.814577, -0.1364344 ],
         "min" : [ -0.1940582, 1.309962, -0.4760196 ],
         "name" : "accessor_position_m0-PolyPaper14_-6616",
         "type" : "VEC3"
      },
      {
         "bufferView" : 1,
         "byteOffset" : 59808,
         "componentType" : 5126,
         "count" : 312,
         "max" : [ 0.01703275, 1.651963, -0.2330119 ],
         "min" : [ -0.1369673, 1.429973, -0.3870119 ],
         "name" : "accessor_position_m1-PolyGem25_-6586",
         "type" : "VEC3"
      }
   ],
   "asset" : {
      "copyright" : "Unknown",
      "extras" : {
         "GOOGLE_processor_version" : 294144208
      },
      "generator" : "glTF 1-to-2 Upgrader for Google Blocks",
      "version" : "2.0"
   },
   "bufferViews" : [
      {
         "buffer" : 0,
         "byteLength" : 7968,
         "byteOffset" : 0,
         "name" : "ushortBufferView",
         "target" : 34963
      },
      {
         "buffer" : 0,
         "byteLength" : 67296,
         "byteOffset" : 7968,
         "byteStride" : 12,
         "name" : "vec3BufferView",
         "target" : 34962
      },
      {
         "buffer" : 0,
         "byteLength" : 44864,
         "byteOffset" : 75264,
         "byteStride" : 16,
         "name" : "vec4BufferView",
         "target" : 34962
      }
   ],
   "buffers" : [
      {
         "byteLength" : 120128,
         "name" : "model",
         "uri" : "model.bin"
      }
   ],
   "cameras" : [
      {
         "perspective" : {
            "yfov" : 0.7853981633974483,
            "znear" : 0.1000000014901161
         },
         "type" : "perspective"
      }
   ],
   "extensions" : {
      "KHR_lights_punctual" : {
         "lights" : [
            {
               "color" : [ 1, 0.9333333333333333, 0.8666666666666667 ],
               "intensity" : 0.25,
               "name" : "headLight",
               "type" : "directional"
            },
            {
               "color" : [ 1, 0.9333333333333333, 0.8666666666666667 ],
               "intensity" : 0.324999988079071,
               "name" : "keyLight",
               "type" : "directional"
            }
         ]
      }
   },
   "extensionsUsed" : [ "GOOGLE_backgrounds", "GOOGLE_camera_settings", "KHR_lights_punctual" ],
   "extras" : {
      "GOOGLE_initial_camera_motion" : {
         "motionPath" : "FULL_ROTATION"
      },
      "GOOGLE_lighting_rig" : {
         "disableShadows" : false
      }
   },
   "materials" : [
      {
         "alphaMode" : "OPAQUE",
         "doubleSided" : false,
         "name" : "BlocksPaper",
         "pbrMetallicRoughness" : {
            "baseColorFactor" : [ 1, 1, 1, 1 ],
            "metallicFactor" : 0,
            "roughnessFactor" : 0.6
         }
      },
      {
         "alphaMode" : "BLEND",
         "doubleSided" : false,
         "name" : "BlocksGlass",
         "pbrMetallicRoughness" : {
            "baseColorFactor" : [ 0.2, 0.2, 1, 0.3 ],
            "metallicFactor" : 1,
            "roughnessFactor" : 0.4
         }
      },
      {
         "alphaMode" : "OPAQUE",
         "doubleSided" : true,
         "name" : "BlocksGem",
         "pbrMetallicRoughness" : {
            "baseColorFactor" : [ 1, 0.4, 1, 1 ],
            "metallicFactor" : 0,
            "roughnessFactor" : 0.1
         }
      }
   ],
   "meshes" : [
      {
         "name" : "mesh_m0-PolyPaper14_-6616",
         "primitives" : [
            {
               "attributes" : {
                  "COLOR_0" : 0,
                  "NORMAL" : 4,
                  "POSITION" : 6
               },
               "indices" : 2,
               "material" : 0,
               "mode" : 4
            }
         ]
      },
      {
         "name" : "mesh_m1-PolyGem25_-6586",
         "primitives" : [
            {
               "attributes" : {
                  "COLOR_0" : 1,
                  "NORMAL" : 5,
                  "POSITION" : 7
               },
               "indices" : 3,
               "material" : 2,
               "mode" : 4
            }
         ]
      }
   ],
   "nodes" : [
      {
         "mesh" : 1,
         "name" : "node_MeshObject-139406976-PolyGem25"
      },
      {
         "mesh" : 0,
         "name" : "node_MeshObject846508800-PolyPaper14"
      },
      {
         "children" : [ 3 ]
      },
      {
         "children" : [ 4 ],
         "extras" : {
            "isTransformNode" : 1
         },
         "translation" : [ -0.05844359677645108, 1.484414186298113, -0.3038611555988107 ]
      },
      {
         "children" : [ 1, 0 ],
         "translation" : [ 0.05844359677645108, -1.484414186298113, 0.3038611555988107 ]
      },
      {
         "camera" : 0,
         "children" : [ 6 ],
         "rotation" : [
            -0.08859340697076551,
            0.5135231382370736,
            0.05340906037639535,
            0.8518172732494746
         ],
         "translation" : [ 0.6691341400146484, 1.73483419418335, 0.0751911848783493 ]
      },
      {
         "extensions" : {
            "KHR_lights_punctual" : {
               "light" : 0
            }
         },
         "extras" : {
            "isHeadLight" : 1
         },
         "name" : "headLightNode",
         "translation" : [ -0.2985262436887234, 0.1492631218443617, 0.1492631218443617 ]
      },
      {
         "extensions" : {
            "KHR_lights_punctual" : {
               "light" : 1
            }
         },
         "extras" : {
            "isKeyLight" : 1
         },
         "name" : "keyLightNode",
         "rotation" : [ -0.7505326882858236, -0.3752663441429118, 0, 0.5439447166468927 ],
         "scale" : [ 0, 0, 0.3015115061256107 ],
         "translation" : [ -0.3617840727043848, 2.164456638050664, -0.6113782567570656 ]
      }
   ],
   "scene" : 0,
   "scenes" : [
      {
         "extensions" : {
            "GOOGLE_backgrounds" : {
               "color" : [ 0.2470588235294118, 0.3176470588235294, 0.7098039215686275 ]
            },
            "GOOGLE_camera_settings" : {}
         },
         "extras" : {
            "GOOGLE_camera_index" : {
               "cameraIndex" : 0,
               "nodeIndex" : 5
            },
            "GOOGLE_geometry_data" : {
               "stats" : {
                  "centroid" : [ -0.06027256657877418, 1.561433625799443, -0.3098667506314549 ],
                  "radius" : 0.2985262436887234,
                  "stdev" : 0.1442617923076299
               },
               "visualCenterPoint" : [ -0.05844359677645108, 1.484414186298113, -0.3038611555988107 ]
            },
            "GOOGLE_hemi_light" : {
               "groundColor" : [ 0.2470588235294118, 0.3176470588235294, 0.7098039215686275 ]
            }
         },
         "name" : "defaultScene",
         "nodes" : [ 2, 5, 7 ]
      }
   ]
}
