{
   "accessors" : [
      {
         "bufferView" : 0,
         "componentType" : 5123,
         "count" : 2232,
         "max" : [ 2231 ],
         "min" : [ 0 ],
         "name" : "buffer-0-accessor-indices-buffer-0-mesh-0",
         "type" : "SCALAR"
      },
      {
         "bufferView" : 2,
         "componentType" : 5126,
         "count" : 2232,
         "max" : [ 0.04165500029921532, 0.1167510002851486, 0.04258000105619431 ],
         "min" : [ -0.04165500029921532, -0.1112489998340607, -0.04158600047230721 ],
         "name" : "buffer-0-accessor-position-buffer-0-mesh-0",
         "type" : "VEC3"
      },
      {
         "bufferView" : 2,
         "byteOffset" : 26784,
         "componentType" : 5126,
         "count" : 2232,
         "max" : [ 0.9864000082015991, 0.9853000044822693, 0.9965000152587891 ],
         "min" : [ -0.9864000082015991, -0.6823999881744385, -0.9965000152587891 ],
         "name" : "buffer-0-accessor-normal-buffer-0-mesh-0",
         "type" : "VEC3"
      },
      {
         "bufferView" : 1,
         "componentType" : 5126,
         "count" : 2232,
         "max" : [ 0.9911999702453613, 0 ],
         "min" : [ 0, -0.9911999702453613 ],
         "name" : "buffer-0-accessor-texcoord-buffer-0-mesh-0",
         "type" : "VEC2"
      },
      {
         "bufferView" : 3,
         "componentType" : 5126,
         "count" : 0,
         "max" : [ 0, 0, 0, 0 ],
         "min" : [ 0, 0, 0, 0 ],
         "name" : "buffer-0-accessor-color-buffer-0-mesh-0",
         "type" : "VEC4"
      }
   ],
   "asset" : {
      "extras" : {
         "GOOGLE_processor_version" : 294144208
      },
      "generator" : "Obj2GltfConverter",
      "version" : "2.0"
   },
   "bufferViews" : [
      {
         "buffer" : 0,
         "byteLength" : 4464,
         "byteStride" : 0,
         "name" : "buffer-0-bufferview-ushort",
         "target" : 34963
      },
      {
         "buffer" : 0,
         "byteLength" : 17856,
         "byteOffset" : 4464,
         "byteStride" : 8,
         "name" : "buffer-0-bufferview-vec2",
         "target" : 34962
      },
      {
         "buffer" : 0,
         "byteLength" : 53568,
         "byteOffset" : 22320,
         "byteStride" : 12,
         "name" : "buffer-0-bufferview-vec3",
         "target" : 34962
      },
      {
         "buffer" : 0,
         "byteLength" : 1,
         "name" : "buffer-0-bufferview-vec4"
      }
   ],
   "buffers" : [
      {
         "byteLength" : 75888,
         "name" : "buffer-0",
         "uri" : "Candle_Stick.bin"
      }
   ],
   "cameras" : [
      {
         "perspective" : {
            "yfov" : 0.7853981633974483,
            "znear" : 0.1000000014901161
         },
         "type" : "perspective"
      }
   ],
   "extensions" : {
      "KHR_lights_punctual" : {
         "lights" : [
            {
               "color" : [ 1, 0.9333333333333333, 0.8666666666666667 ],
               "intensity" : 0.25,
               "name" : "headLight",
               "type" : "directional"
            },
            {
               "color" : [ 1, 0.9333333333333333, 0.8666666666666667 ],
               "intensity" : 0.324999988079071,
               "name" : "keyLight",
               "type" : "directional"
            }
         ]
      }
   },
   "extensionsUsed" : [ "GOOGLE_backgrounds", "GOOGLE_camera_settings", "KHR_lights_punctual" ],
   "extras" : {
      "GOOGLE_initial_camera_motion" : {
         "motionPath" : "FULL_ROTATION"
      },
      "GOOGLE_lighting_rig" : {
         "disableShadows" : false
      }
   },
   "materials" : [
      {
         "doubleSided" : true,
         "name" : "phong1SG",
         "pbrMetallicRoughness" : {
            "baseColorFactor" : [ 0.5, 0.31, 0, 1 ],
            "metallicFactor" : 0,
            "roughnessFactor" : 0.8903660472844295
         }
      }
   ],
   "meshes" : [
      {
         "name" : "buffer-0-mesh-0",
         "primitives" : [
            {
               "attributes" : {
                  "NORMAL" : 2,
                  "POSITION" : 1,
                  "TEXCOORD_0" : 3
               },
               "indices" : 0,
               "material" : 0
            }
         ]
      }
   ],
   "nodes" : [
      {
         "mesh" : 0,
         "name" : "node-0"
      },
      {
         "children" : [ 2 ]
      },
      {
         "children" : [ 3 ],
         "extras" : {
            "isTransformNode" : 1
         },
         "translation" : [ -0.0005700000002980238, -0.002778464872542023, 0.001067000292241572 ]
      },
      {
         "children" : [ 0 ],
         "translation" : [ 0.0005700000002980238, 0.002778464872542023, -0.001067000292241572 ]
      },
      {
         "camera" : 0,
         "children" : [ 5 ],
         "rotation" : [
            -0.2219240542792782,
            -0.2518950318538158,
            -0.05946428056213496,
            0.9400864887853888
         ],
         "translation" : [ -0.2228372735032411, 0.2195862047601297, 0.3860458878772607 ]
      },
      {
         "extensions" : {
            "KHR_lights_punctual" : {
               "light" : 0
            }
         },
         "extras" : {
            "isHeadLight" : 1
         },
         "name" : "headLightNode",
         "translation" : [ -0.1651757298061379, 0.08258786490306894, 0.08258786490306894 ]
      },
      {
         "extensions" : {
            "KHR_lights_punctual" : {
               "light" : 1
            }
         },
         "extras" : {
            "isKeyLight" : 1
         },
         "name" : "keyLightNode",
         "rotation" : [ -0.7505326882858236, -0.3752663441429118, 0, 0.5439447166468927 ],
         "scale" : [ 0, 0, 0.1668274871041993 ],
         "translation" : [ -0.1668248034124537, 0.366538416045162, -0.1662970883592462 ]
      }
   ],
   "scene" : 0,
   "scenes" : [
      {
         "extensions" : {
            "GOOGLE_backgrounds" : {
               "color" : [ 0.01176470588235294, 0.6627450980392157, 0.9568627450980393 ]
            },
            "GOOGLE_camera_settings" : {}
         },
         "extras" : {
            "GOOGLE_camera_index" : {
               "cameraIndex" : 0,
               "nodeIndex" : 4
            },
            "GOOGLE_geometry_data" : {
               "stats" : {
                  "centroid" : [ 2.683691745523804e-06, 0.03288344183676346, 0.0005303987449530648 ],
                  "radius" : 0.1651757298061379,
                  "stdev" : 0.1029331874929945
               },
               "visualCenterPoint" : [ -0.0005700000002980238, -0.002778464872542023, 0.001067000292241572 ]
            },
            "GOOGLE_hemi_light" : {
               "groundColor" : [ 0.01176470588235294, 0.6627450980392157, 0.9568627450980393 ]
            }
         },
         "name" : "scene-0",
         "nodes" : [ 1, 4, 6 ]
      }
   ]
}
